<svg xmlns="http://www.w3.org/2000/svg" viewBox="0 0 512 512">
  <defs>
    <linearGradient id="grad" x1="0%" y1="0%" x2="100%" y2="100%">
      <stop offset="0%" style="stop-color:#6366f1;stop-opacity:1" />
      <stop offset="100%" style="stop-color:#8b5cf6;stop-opacity:1" />
    </linearGradient>
  </defs>
  <rect width="512" height="512" rx="96" fill="url(#grad)"/>

  <!-- Whale icon -->
  <path d="M256 140c-60 0-110 40-110 90c0 30 15 55 35 70l-20 40c-5 10 0 20 10 25c10 5 20 0 25-10l15-30c15 5 30 10 45 10c15 0 30-5 45-10l15 30c5 10 15 15 25 10c10-5 15-15 10-25l-20-40c20-15 35-40 35-70c0-50-50-90-110-90zm-40 80c-8 0-15-7-15-15s7-15 15-15s15 7 15 15s-7 15-15 15zm80 0c-8 0-15-7-15-15s7-15 15-15s15 7 15 15s-7 15-15 15z"
        fill="white" opacity="0.95"/>

  <!-- Admin badge -->
  <circle cx="390" cy="390" r="60" fill="white"/>
  <path d="M390 360l15 25h-30l15-25zm0 40c-3 0-5 2-5 5s2 5 5 5s5-2 5-5s-2-5-5-5z" fill="#6366f1"/>
</svg>
